<svg height="1024" viewBox="0 0 270.93332 270.93333" width="1024" xmlns="http://www.w3.org/2000/svg"><path d="m152.70238 255.80057c0-17.49275-.12376-38.00529-.94494-56.88541l-.37798-79.94197c7.41547 15.75787 11.47429 41.01272 10.01638 60.85417-17.95412 22.3661 25.63499 22.04668 8.50446-.37798 1.40223-23.83796 3.22829-60.65704-19.27679-75.02827 33.92127-74.018903-63.707008-65.809102-24.00148-.18898-27.439166 17.11042-23.76545 53.52913-21.16667 76.91815-17.954113 22.3661 25.63499 22.04668 8.50446-.37798-.95935-22.26051.69097-45.92113 12.28423-63.31101l-.94495 80.8869c-1.76616 19.46044-1.7497 39.72441-3.96874 58.58631-.95398-.0561-13.79138 1.89464-8.59896 7.08706 2.54672 2.54671 19.49961 2.95614 21.26116-.56697 1.35441-2.70882-.21854-5.74984-2.26785-6.70908l5.10267-75.78422c0-1.9377 3.90195-2.5276 3.96875-.18899l1.5119 74.83928c-2.04931.95924-3.62226 4.00026-2.26785 6.70908 1.76155 3.52311 18.71444 3.11368 21.26116.56697 5.19242-5.19242-7.64498-7.14318-8.59896-7.08706" fill="#0f0" fill-rule="evenodd" stroke="#0f0" stroke-width=".26458332"/></svg>