<svg height="1024" viewBox="0 0 270.93332 270.93333" width="1024" xmlns="http://www.w3.org/2000/svg"><path d="m152.11299 122.83842c1.13693 3.56377 2.6362 8.3999 3.36846 10.91559 3.74885 0 9.67154-2.26093 13.22265-2.8238-2.31649-8.30192-6.76465-18.16248-16.3041-27.03417-8.28884 5.0654-18.80377 7.93567-27.55255-.287-9.74982 5.08339-16.96554 20.96792-19.68151 27.9198 3.90273 1.55682 10.71877 4.41872 14.5664 4.93009 1.69519-7.89705 5.11336-11.65862 5.48389-12.86268.0992 40.75999-.97568 85.78272-4.26182 128.56479 4.23032.3096 8.42996.50996 12.5825.60883 1.05392-22.70149 4.76918-48.08613 4.76918-70.31997 1.59576 22.3837.6333 48.9171 3.14563 70.52292 4.03453-.53815 9.37406-.64933 12.78545-.81178-.0503-25.27001-2.51612-95.60964-2.12418-129.32262z" fill="#00f" fill-rule="evenodd" stroke="#00f" stroke-width=".26458332"/></svg>