<svg height="1024" viewBox="0 0 270.93332 270.93333" width="1024" xmlns="http://www.w3.org/2000/svg"><path d="m159.96584 210.77731-7.43303-42.33074c-.33947-17.35532-.5574-33.7564-.41961-45.60808 1.13692 3.56377 2.636 8.39993 3.36826 10.91562 3.74885 0 9.67134-2.26125 13.22245-2.82412-2.31649-8.30192-6.76446-18.16232-16.30391-27.03401-8.28884 5.0654-18.80354 7.93587-27.55233-.2868-9.74982 5.08339-16.96551 20.96786-19.68148 27.91974 3.90273 1.55682 10.71841 4.41856 14.56604 4.92993 1.69519-7.89705 5.11337-11.65872 5.4839-12.86278.0353 14.50617-.0818 29.55764-.39068 44.8505l-10.48659 41.95676z" fill="#00f" fill-rule="evenodd" stroke="#0000f6" stroke-width=".26458332"/></svg>