<svg height="1024" viewBox="0 0 270.93332 270.93333" width="1024" xmlns="http://www.w3.org/2000/svg"><path d="m445.83008 120.40625a61.83051 61.83051 0 0 0 -61.83008 61.83008 61.83051 61.83051 0 0 0  61.83008 61.83203 61.83051 61.83051 0 0 0  61.83008-61.83203 61.83051 61.83051 0 0 0 -61.83008-61.83008zm138.1582 0a61.83051 61.83051 0 0 0 -61.83008 61.83008 61.83051 61.83051 0 0 0  61.83008 61.83203 61.83051 61.83051 0 0 0  61.83008-61.83203 61.83051 61.83051 0 0 0 -61.83008-61.83008z" fill="#0f0" fill-rule="evenodd" stroke="#00fd00" stroke-linecap="round" stroke-linejoin="round" transform="scale(.26458333)"/></svg>