<svg height="1024" viewBox="0 0 270.93332 270.93333" width="1024" xmlns="http://www.w3.org/2000/svg"><path d="m471.86523 391.59375c-36.84971 19.21281-64.12163 79.24861-74.38671 105.52344 14.75047 5.88404 40.51051 16.70007 55.05273 18.63281 6.40702-29.84712 19.32613-44.06446 20.72656-48.61523.12067 49.58046-.28165 100.92672-1.21093 153.02539l104.28906 1.82226c-1.10624-59.72421-1.89902-116.50098-1.41992-157.71094 4.29705 13.46937 9.96287 31.74774 12.73046 41.25586 14.16889 0 36.5531-8.54644 49.97461-10.67382-8.75523-31.37734-25.56647-68.64499-61.62109-102.17579-31.3279 19.14482-71.06851 29.99383-104.13477-1.08398z" fill="#00f" fill-rule="evenodd" stroke="#00f" transform="scale(.26458333)"/></svg>