<svg height="1024" viewBox="0 0 270.93332 270.93333" width="1024" xmlns="http://www.w3.org/2000/svg"><path d="m160.86666 173.20791c-.91613-12.82586-1.3141-27.58897-5.3852-39.4538-.73226-2.51569-2.23134-7.35185-3.36827-10.91562-.12676 10.90347.083 25.92566.37569 41.72769l-27.59315-.48214c.2459-13.78444.3523-27.3698.3204-40.48797-.37053 1.20406-3.78871 4.96573-5.48391 12.86278-3.60604 11.21503-3.62877 24.49192-4.21245 36.74906-2.53825.059-8.86101.265-12.77175 1.00452-1.22156-12.82644-1.56636-30.46403 2.41817-42.68351 2.71597-6.95188 9.93166-22.83635 19.68148-27.91974 8.74878 8.22267 19.26349 5.3522 27.55233.2868 9.53945 8.87169 13.98742 18.73209 16.30391 27.03401 3.6057 12.16823 3.42758 27.50341 3.06897 42.56492-1.34784.0321-8.51938.24431-10.90622-.287z" fill="#00f" fill-rule="evenodd" stroke="#00f" stroke-width=".26458332"/></svg>