<svg height="1024" viewBox="0 0 270.93332 270.93333" width="1024" xmlns="http://www.w3.org/2000/svg"><path d="m471.86523 391.59375c.7055 2.23238 1.34377 4.69116 1.90821 7.33398.56444 2.64283 1.05497 5.47003 1.46875 8.43946.41378 2.96942.75039 6.08078 1.0039 9.29297.25352 3.21219.42418 6.52537.50782 9.89648s.08021 6.7999-.01563 10.24609c-.09584 3.4462-.28344 6.91022-.56836 10.34766-.28492 3.43745-.66678 6.84851-1.15039 10.19336s-1.06981 6.6226-1.76172 9.79102c.12057 49.58048-.28155 100.92671-1.21093 153.02539l104.28906 1.82226c-1.10623-59.72421-1.89902-116.50096-1.41992-157.71094-.71125-2.93392-1.3701-7.45926-1.86524-12.95117s-.82735-11.95035-.88476-18.75c-.02871-3.39982.01248-6.88462.13476-10.37695.12228-3.49234.32599-6.99136.62695-10.41992.30097-3.42857.69773-6.78758 1.20508-9.9961.50736-3.20851 1.12574-6.26743 1.86719-9.09961-31.3279 19.14482-71.06851 29.99383-104.13477-1.08398z" fill="#00f" fill-rule="evenodd" stroke="#00f" transform="scale(.26458333)"/></svg>