<svg height="1024" viewBox="0 0 270.93332 270.93333" width="1024" xmlns="http://www.w3.org/2000/svg"><path d="m211.28868 158.4717c.81242 2.77567 1.81804 5.94914 3.03429 8.66103 14.2462 29.36584-14.53365-3.29272-18.15333-14.70864 1.00961 2.62648 1.78004 5.68864 3.07916 8.15039 14.14623 32.98047-15.67492.58916-20.46607-13.44206.34558 1.99598 1.67584 3.99327 2.2125 6.12491 14.14218 30.68741-15.08563 2.07802-20.54434-11.22759.50388 1.71204 1.88017 3.89557 2.45684 5.10268 10.85392 23.69729-13.89218.31503-16.81994-8.69345-5.5529-.26443-10.83675 1.87028-17.00892 0-2.92776 9.00848-27.54646 29.45078-16.81994 8.69345.5748-1.07589 1.49265-3.21334 2.45684-5.10268-5.45871 13.30561-32.487788 43.45834-20.878435 12.26326.530712-1.91152 1.661229-4.86025 2.54659-7.16058-4.791148 14.03123-35.162904 44.42652-20.666518 14.07683.892905-2.47462 2.546371-5.75223 3.279616-8.78516-3.619682 11.41592-28.359727 40.75932-17.942405 15.4713.762213-2.96567 2.040167-6.12201 2.823357-9.42369-4.060203 10.0797-27.621923 35.19245-21.355653 19.65477 34.184656-85.461643 2.685172-86.414677 83.910708-56.88542 3.44829 1.17048 8.51435 1.96644 11.1503 2.45685 2.63595-.49041 7.70201-1.28637 11.1503-2.45685 81.22554-29.529258 49.72605-28.576224 83.91071 56.88542 7.96716 21.4908-17.95691-9.19709-21.35566-19.65477z" fill="#0f0" fill-rule="evenodd" stroke="#0f0" stroke-width=".26458332"/></svg>